<?xml version="1.0" encoding="UTF-8" standalone="no" ?>
<!DOCTYPE svg PUBLIC "-//W3C//DTD SVG 1.1//EN" "http://www.w3.org/Graphics/SVG/1.1/DTD/svg11.dtd">
<svg xmlns="http://www.w3.org/2000/svg" xmlns:xlink="http://www.w3.org/1999/xlink" version="1.1" width="1080" height="1080" viewBox="0 0 1080 1080" xml:space="preserve">
<desc>Created with Fabric.js 4.2.0</desc>
<defs>
</defs>
<g transform="matrix(1 0 0 1 540 540)" id="69dbefe0-8bac-408f-9875-a65e97aa0808"  >
<rect style="stroke: none; stroke-width: 1; stroke-dasharray: none; stroke-linecap: butt; stroke-dashoffset: 0; stroke-linejoin: miter; stroke-miterlimit: 4; fill: rgb(255,255,255); fill-opacity: 0; fill-rule: nonzero; opacity: 1;" vector-effect="non-scaling-stroke"  x="-540" y="-540" rx="0" ry="0" width="1080" height="1080" />
</g>
<g transform="matrix(Infinity NaN NaN Infinity 0 0)" id="84eddb4f-3d68-442f-801f-250623a44faa"  >
</g>
<g transform="matrix(2.62 0 0 4.26 540 571.5)"  >
<path style="stroke: none; stroke-width: 1; stroke-dasharray: none; stroke-linecap: butt; stroke-dashoffset: 0; stroke-linejoin: miter; stroke-miterlimit: 4; fill: rgb(255,255,255); fill-rule: nonzero; opacity: 1;" vector-effect="non-scaling-stroke"  transform=" translate(-42.63, -8.98)" d="M 5.41 12.67 L 5.41 12.67 Q 3.23 12.67 1.76 11.2 L 1.76 11.2 L 1.76 11.2 Q 0.29 9.73 0.29 7.53 L 0.29 7.53 L 0.29 7.53 Q 0.29 5.37 1.76 3.89 L 1.76 3.89 L 1.76 3.89 Q 3.23 2.42 5.41 2.42 L 5.41 2.42 L 5.41 2.42 Q 7.6 2.42 9.17 3.79 L 9.17 3.79 L 7.81 5.28 L 7.81 5.28 Q 6.76 4.46 5.41 4.46 L 5.41 4.46 L 5.41 4.46 Q 4.03 4.47 3.18 5.33 L 3.18 5.33 L 3.18 5.33 Q 2.34 6.18 2.34 7.51 L 2.34 7.51 L 2.34 7.51 Q 2.34 8.94 3.19 9.78 L 3.19 9.78 L 3.19 9.78 Q 4.04 10.62 5.42 10.62 L 5.42 10.62 L 5.42 10.62 Q 6.53 10.62 7.12 10.19 L 7.12 10.19 L 7.12 8.43 L 5.76 8.44 L 5.76 6.52 L 9.17 6.52 L 9.17 11.31 L 9.17 11.31 Q 7.61 12.67 5.41 12.67 L 5.41 12.67 Z M 12.84 5.83 L 12.84 6.59 L 12.84 6.59 Q 13.58 5.84 14.63 5.84 L 14.63 5.84 L 14.63 5.84 Q 14.96 5.84 15.26 5.89 L 15.26 5.89 L 14.96 7.78 L 14.96 7.78 Q 14.63 7.48 14.01 7.46 L 14.01 7.46 L 14.01 7.46 Q 13.31 7.51 12.84 8.47 L 12.84 8.47 L 12.84 12.67 L 10.93 12.67 L 10.93 6.04 L 12.84 5.83 Z M 19.61 12.74 L 19.61 12.74 Q 18.12 12.74 17.12 11.74 L 17.12 11.74 L 17.12 11.74 Q 16.13 10.74 16.13 9.26 L 16.13 9.26 L 16.13 9.26 Q 16.13 7.77 17.12 6.77 L 17.12 6.77 L 17.12 6.77 Q 18.12 5.77 19.61 5.77 L 19.61 5.77 L 19.61 5.77 Q 21.1 5.77 22.1 6.77 L 22.1 6.77 L 22.1 6.77 Q 23.1 7.77 23.1 9.26 L 23.1 9.26 L 23.1 9.26 Q 23.1 10.75 22.1 11.74 L 22.1 11.74 L 22.1 11.74 Q 21.1 12.74 19.61 12.74 L 19.61 12.74 Z M 19.61 11.09 L 19.61 11.09 L 19.61 11.09 Q 20.38 11.09 20.87 10.56 L 20.87 10.56 L 20.87 10.56 Q 21.36 10.04 21.36 9.26 L 21.36 9.26 L 21.36 9.26 Q 21.36 8.48 20.87 7.96 L 20.87 7.96 L 20.87 7.96 Q 20.38 7.43 19.6 7.43 L 19.6 7.43 L 19.6 7.43 Q 18.83 7.43 18.34 7.96 L 18.34 7.96 L 18.34 7.96 Q 17.86 8.48 17.86 9.26 L 17.86 9.26 L 17.86 9.26 Q 17.86 10.04 18.34 10.56 L 18.34 10.56 L 18.34 10.56 Q 18.83 11.09 19.61 11.09 Z M 28.52 10.25 L 28.52 10.25 L 28.52 5.83 L 30.43 5.83 L 30.43 12.67 L 28.52 12.67 L 28.52 12.05 L 28.52 12.05 Q 27.83 12.67 26.88 12.67 L 26.88 12.67 L 26.88 12.67 Q 25.58 12.67 24.9 11.88 L 24.9 11.88 L 24.9 11.88 Q 24.21 11.09 24.21 10.07 L 24.21 10.07 L 24.21 5.83 L 26.13 5.83 L 26.13 9.59 L 26.13 9.59 Q 26.13 10.27 26.47 10.65 L 26.47 10.65 L 26.47 10.65 Q 26.81 11.03 27.5 11.05 L 27.5 11.05 L 27.5 11.05 Q 28.1 11.01 28.52 10.25 Z M 33.97 15.55 L 32.06 15.54 L 32.06 6.04 L 33.97 5.83 L 33.97 6.38 L 33.97 6.38 Q 34.74 5.83 35.48 5.83 L 35.48 5.83 L 35.48 5.83 Q 37.05 5.83 37.97 6.86 L 37.97 6.86 L 37.97 6.86 Q 38.9 7.88 38.9 9.25 L 38.9 9.25 L 38.9 9.25 Q 38.9 10.62 37.97 11.64 L 37.97 11.64 L 37.97 11.64 Q 37.05 12.67 35.48 12.67 L 35.48 12.67 L 35.48 12.67 Q 34.45 12.6 33.97 12.11 L 33.97 12.11 L 33.97 15.55 Z M 33.97 8.63 L 33.97 8.63 L 33.97 9.74 L 33.97 9.74 Q 34.11 10.89 35.41 11.09 L 35.41 11.09 L 35.41 11.09 Q 37.05 10.96 37.26 9.39 L 37.26 9.39 L 37.26 9.39 Q 37.19 7.47 35.41 7.4 L 35.41 7.4 L 35.41 7.4 Q 34.11 7.61 33.97 8.63 Z M 43.35 12.74 L 43.35 12.74 Q 41.86 12.74 40.87 11.74 L 40.87 11.74 L 40.87 11.74 Q 39.87 10.74 39.87 9.26 L 39.87 9.26 L 39.87 9.26 Q 39.87 7.77 40.87 6.77 L 40.87 6.77 L 40.87 6.77 Q 41.86 5.77 43.35 5.77 L 43.35 5.77 L 43.35 5.77 Q 44.84 5.77 45.84 6.77 L 45.84 6.77 L 45.84 6.77 Q 46.84 7.77 46.84 9.26 L 46.84 9.26 L 46.84 9.26 Q 46.84 10.75 45.84 11.74 L 45.84 11.74 L 45.84 11.74 Q 44.84 12.74 43.35 12.74 L 43.35 12.74 Z M 43.35 11.09 L 43.35 11.09 L 43.35 11.09 Q 44.13 11.09 44.61 10.56 L 44.61 10.56 L 44.61 10.56 Q 45.1 10.04 45.1 9.26 L 45.1 9.26 L 45.1 9.26 Q 45.1 8.48 44.61 7.96 L 44.61 7.96 L 44.61 7.96 Q 44.13 7.43 43.34 7.43 L 43.34 7.43 L 43.34 7.43 Q 42.57 7.43 42.08 7.96 L 42.08 7.96 L 42.08 7.96 Q 41.6 8.48 41.6 9.26 L 41.6 9.26 L 41.6 9.26 Q 41.6 10.04 42.08 10.56 L 42.08 10.56 L 42.08 10.56 Q 42.57 11.09 43.35 11.09 Z M 50.03 8.3 L 50.03 8.3 L 50.03 12.67 L 48.11 12.67 L 48.11 6.04 L 50.03 5.83 L 50.03 6.44 L 50.03 6.44 Q 50.67 5.84 51.67 5.84 L 51.67 5.84 L 51.67 5.84 Q 52.96 5.84 53.65 6.62 L 53.65 6.62 L 53.65 6.62 Q 54.4 5.84 55.9 5.84 L 55.9 5.84 L 55.9 5.84 Q 57.2 5.84 57.89 6.62 L 57.89 6.62 L 57.89 6.62 Q 58.57 7.41 58.57 8.44 L 58.57 8.44 L 58.57 12.67 L 56.66 12.67 L 56.66 8.91 L 56.66 8.91 Q 56.66 8.23 56.35 7.85 L 56.35 7.85 L 56.35 7.85 Q 56.04 7.48 55.35 7.46 L 55.35 7.46 L 55.35 7.46 Q 54.78 7.5 54.37 8.21 L 54.37 8.21 L 54.37 8.21 Q 54.33 8.42 54.33 8.64 L 54.33 8.64 L 54.33 12.67 L 52.42 12.67 L 52.42 8.91 L 52.42 8.91 Q 52.42 8.23 52.11 7.85 L 52.11 7.85 L 52.11 7.85 Q 51.8 7.48 51.11 7.46 L 51.11 7.46 L 51.11 7.46 Q 50.48 7.5 50.03 8.3 Z M 61.14 7.82 L 60.39 6.66 L 60.39 6.66 Q 61.69 5.84 63.4 5.84 L 63.4 5.84 L 63.4 5.84 Q 64.63 5.84 65.34 6.52 L 65.34 6.52 L 65.34 6.52 Q 66.06 7.21 66.06 8.57 L 66.06 8.57 L 66.06 12.67 L 64.15 12.67 L 64.15 12.13 L 64.15 12.13 Q 63.31 12.67 62.64 12.67 L 62.64 12.67 L 62.64 12.67 Q 61.28 12.67 60.59 12.09 L 60.59 12.09 L 60.59 12.09 Q 59.91 11.51 59.91 10.49 L 59.91 10.49 L 59.91 10.49 Q 59.91 9.53 60.56 8.78 L 60.56 8.78 L 60.56 8.78 Q 61.2 8.03 62.64 8.03 L 62.64 8.03 L 62.64 8.03 Q 63.31 8.03 64.15 8.44 L 64.15 8.44 L 64.15 8.23 L 64.15 8.23 Q 64.13 7.48 63.05 7.41 L 63.05 7.41 L 63.05 7.41 Q 61.82 7.41 61.14 7.82 L 61.14 7.82 Z M 64.15 10.62 L 64.15 10.62 L 64.15 9.85 L 64.15 9.85 Q 63.88 9.32 62.85 9.32 L 62.85 9.32 L 62.85 9.32 Q 61.62 9.46 61.55 10.28 L 61.55 10.28 L 61.55 10.28 Q 61.62 11.09 62.85 11.16 L 62.85 11.16 L 62.85 11.16 Q 63.88 11.16 64.15 10.62 Z M 69.69 8.33 L 69.69 8.33 L 69.69 12.67 L 67.77 12.67 L 67.77 6.04 L 69.69 5.83 L 69.69 6.45 L 69.69 6.45 Q 70.38 5.84 71.33 5.84 L 71.33 5.84 L 71.33 5.84 Q 72.63 5.84 73.31 6.62 L 73.31 6.62 L 73.31 6.62 Q 73.99 7.41 73.99 8.44 L 73.99 8.44 L 73.99 12.67 L 72.08 12.67 L 72.08 8.91 L 72.08 8.91 Q 72.08 8.23 71.74 7.85 L 71.74 7.85 L 71.74 7.85 Q 71.39 7.48 70.7 7.46 L 70.7 7.46 L 70.7 7.46 Q 70.11 7.5 69.69 8.33 Z M 77.51 12.67 L 75.6 12.67 L 75.6 5.83 L 77.51 5.83 L 77.51 12.67 Z M 75.53 4.2 L 75.53 4.2 L 75.53 4.2 Q 75.53 4.61 75.8 4.88 L 75.8 4.88 L 75.8 4.88 Q 76.08 5.15 76.56 5.15 L 76.56 5.15 L 76.56 5.15 Q 77.03 5.15 77.31 4.88 L 77.31 4.88 L 77.31 4.88 Q 77.58 4.61 77.58 4.2 L 77.58 4.2 L 77.58 4.2 Q 77.58 3.79 77.31 3.51 L 77.31 3.51 L 77.31 3.51 Q 77.03 3.23 76.54 3.23 L 76.54 3.23 L 76.54 3.23 Q 76.08 3.23 75.8 3.51 L 75.8 3.51 L 75.8 3.51 Q 75.53 3.79 75.53 4.2 Z M 80.06 7.82 L 79.31 6.66 L 79.31 6.66 Q 80.61 5.84 82.32 5.84 L 82.32 5.84 L 82.32 5.84 Q 83.55 5.84 84.27 6.52 L 84.27 6.52 L 84.27 6.52 Q 84.98 7.21 84.98 8.57 L 84.98 8.57 L 84.98 12.67 L 83.07 12.67 L 83.07 12.13 L 83.07 12.13 Q 82.24 12.67 81.57 12.67 L 81.57 12.67 L 81.57 12.67 Q 80.2 12.67 79.52 12.09 L 79.52 12.09 L 79.52 12.09 Q 78.83 11.51 78.83 10.49 L 78.83 10.49 L 78.83 10.49 Q 78.83 9.53 79.48 8.78 L 79.48 8.78 L 79.48 8.78 Q 80.12 8.03 81.57 8.03 L 81.57 8.03 L 81.57 8.03 Q 82.23 8.03 83.07 8.44 L 83.07 8.44 L 83.07 8.23 L 83.07 8.23 Q 83.06 7.48 81.98 7.41 L 81.98 7.41 L 81.98 7.41 Q 80.75 7.41 80.06 7.82 L 80.06 7.82 Z M 83.07 10.62 L 83.07 10.62 L 83.07 9.85 L 83.07 9.85 Q 82.8 9.32 81.77 9.32 L 81.77 9.32 L 81.77 9.32 Q 80.54 9.46 80.47 10.28 L 80.47 10.28 L 80.47 10.28 Q 80.54 11.09 81.77 11.16 L 81.77 11.16 L 81.77 11.16 Q 82.8 11.16 83.07 10.62 Z" stroke-linecap="round" />
</g>
<g transform="matrix(0.58 0 0 0.72 541.58 510.51)"  >
<path style="stroke: none; stroke-width: 1; stroke-dasharray: none; stroke-linecap: butt; stroke-dashoffset: 0; stroke-linejoin: miter; stroke-miterlimit: 4; fill: rgb(255,255,255); fill-rule: nonzero; opacity: 1;" vector-effect="non-scaling-stroke"  transform=" translate(155, -257)" d="M -155 298.8 C -143.8 298.8 -133.3 294.5 -125.4 286.6 C -117.5 278.70000000000005 -113.2 268.20000000000005 -113.2 257 C -113.2 245.8 -117.5 235.3 -125.4 227.4 C -133.3 219.5 -143.8 215.20000000000002 -155 215.20000000000002 C -166.2 215.20000000000002 -176.7 219.50000000000003 -184.6 227.4 C -192.5 235.3 -196.79999999999998 245.8 -196.79999999999998 257 C -196.79999999999998 268.2 -192.49999999999997 278.7 -184.6 286.6 C -176.7 294.5 -166.2 298.8 -155 298.8 z M -152.6 291.7 C -153.4 291.8 -154.2 291.8 -155 291.8 C -156.1 291.8 -157.2 291.7 -158.3 291.6 C -161.9 286 -164.60000000000002 280 -166.20000000000002 273.70000000000005 L -148.50000000000003 273.70000000000005 C -147.90000000000003 275.20000000000005 -146.80000000000004 276.6 -145.50000000000003 277.50000000000006 C -147.20000000000002 282.50000000000006 -149.60000000000002 287.20000000000005 -152.60000000000002 291.70000000000005 z M -143.1 289.7 C -141.2 286.2 -139.7 282.7 -138.5 279 C -135.6 278.4 -133.3 276.4 -132.2 273.7 L -124.49999999999999 273.7 C -128.5 281 -135.2 286.7 -143.1 289.7 z M -120.3 257 C -120.3 260.3 -120.8 263.5 -121.6 266.6 L -132.4 266.6 C -133 265.3 -134 264.1 -135.20000000000002 263.20000000000005 C -135.00000000000003 261.00000000000006 -134.9 258.80000000000007 -134.9 256.6 C -134.9 253.50000000000003 -135.1 250.40000000000003 -135.5 247.40000000000003 L -121.7 247.40000000000003 C -120.7 250.40000000000003 -120.3 253.70000000000005 -120.3 257.00000000000006 z M -124.5 240.3 L -136.7 240.3 C -138 234.8 -139.89999999999998 229.60000000000002 -142.5 224.60000000000002 C -134.9 227.50000000000003 -128.5 233.20000000000002 -124.5 240.3 z M -141.9 256.6 C -141.9 258.3 -142 260 -142.1 261.70000000000005 C -144.9 262.30000000000007 -147.2 264.1 -148.29999999999998 266.6 L -167.6 266.6 C -168 263.6 -168.29999999999998 260.5 -168.29999999999998 257.5 C -168.29999999999998 255.6 -168.2 253.7 -167.99999999999997 251.8 C -165.39999999999998 251.3 -163.29999999999998 249.60000000000002 -161.99999999999997 247.4 L -142.49999999999997 247.4 C -142.09999999999997 250.4 -141.89999999999998 253.5 -141.89999999999998 256.6 z M -157.6 222.40000000000003 C -156.7 222.30000000000004 -155.79999999999998 222.30000000000004 -155 222.30000000000004 C -154 222.30000000000004 -153 222.30000000000004 -152 222.40000000000003 C -148.4 228.00000000000003 -145.7 234.00000000000003 -144.1 240.30000000000004 L -161.5 240.30000000000004 C -162.1 238.60000000000005 -163.2 237.10000000000005 -164.6 236.00000000000003 C -162.79999999999998 231.20000000000002 -160.5 226.70000000000002 -157.6 222.40000000000003 z M -167.1 224.40000000000003 C -168.79999999999998 227.60000000000002 -170.29999999999998 231.00000000000003 -171.5 234.40000000000003 C -174.6 235.00000000000003 -177.1 237.30000000000004 -178.1 240.20000000000005 L -185.4 240.20000000000005 C -181.5 233.10000000000005 -175 227.40000000000003 -167.1 224.40000000000003 z M -189.7 257.00000000000006 C -189.7 253.70000000000005 -189.2 250.40000000000006 -188.29999999999998 247.40000000000006 L -177.39999999999998 247.40000000000006 C -176.79999999999998 248.50000000000006 -175.89999999999998 249.50000000000006 -174.89999999999998 250.30000000000007 C -175.09999999999997 252.70000000000007 -175.29999999999998 255.10000000000008 -175.29999999999998 257.50000000000006 C -175.29999999999998 260.6000000000001 -175.1 263.6000000000001 -174.7 266.6000000000001 L -188.29999999999998 266.6000000000001 C -189.29999999999998 263.50000000000006 -189.7 260.30000000000007 -189.7 257.00000000000006 z M -173.5 273.6000000000001 C -172.2 279.00000000000006 -170.3 284.30000000000007 -167.7 289.30000000000007 C -175.29999999999998 286.30000000000007 -181.6 280.70000000000005 -185.5 273.6000000000001 L -173.5 273.6000000000001 z" stroke-linecap="round" />
</g>
</svg>