<svg xmlns="http://www.w3.org/2000/svg" xmlns:xlink="http://www.w3.org/1999/xlink" version="1.1" width="1000" height="1000" viewBox="0 0 1000 1000" xml:space="preserve">
<desc>Created with Fabric.js 3.5.0</desc>
<defs>
</defs>
<rect x="0" y="0" width="100%" height="100%" fill="rgba(255,255,255,0)"/>
<g transform="matrix(1.7787 0 0 1.7787 499.5021 499.5019)" id="547248">
<path style="stroke: none; stroke-width: 0; stroke-dasharray: none; stroke-linecap: butt; stroke-dashoffset: 0; stroke-linejoin: miter; stroke-miterlimit: 4; is-custom-font: none; font-file-url: none; fill: rgb(121,121,121); fill-rule: nonzero; opacity: 1;" vector-effect="non-scaling-stroke" transform=" translate(-255.5495, -256)" d="M 256 32 C 114.6 32 0.0272 125.1 0.0272 240 c 0 47.63 19.91 91.25 52.91 126.2 c -14.88 39.5 -45.87 72.88 -46.37 73.25 c -6.625 7 -8.375 17.25 -4.625 26 C 5.818 474.2 14.38 480 24 480 c 61.5 0 109.1 -25.75 139.1 -46.25 C 191.1 442.8 223.3 448 256 448 c 141.4 0 255.1 -93.13 255.1 -208 S 397.4 32 256 32 z M 256.1 400 c -26.75 0 -53.12 -4.125 -78.38 -12.12 l -22.75 -7.125 l -19.5 13.75 c -14.25 10.12 -33.88 21.38 -57.5 29 c 7.375 -12.12 14.37 -25.75 19.88 -40.25 l 10.62 -28 l -20.62 -21.87 C 69.82 314.1 48.07 282.2 48.07 240 c 0 -88.25 93.25 -160 208 -160 s 208 71.75 208 160 S 370.8 400 256.1 400 z" stroke-linecap="round"/>
</g>
</svg>