<svg xmlns="http://www.w3.org/2000/svg"
    xmlns:xlink="http://www.w3.org/1999/xlink" version="1.1" width="1000" height="1000" viewBox="0 0 1000 1000" xml:space="preserve">
    <desc>Created with Fabric.js 3.5.0</desc>
    <defs>
    </defs>
    <rect x="0" y="0" width="100%" height="100%" fill="rgba(255,255,255,0)"/>
    <g transform="matrix(1 0 0 1 50 50)" id="815029">
        <rect style="stroke: none; stroke-width: 1; stroke-dasharray: none; stroke-linecap: butt; stroke-dashoffset: 0; stroke-linejoin: miter; stroke-miterlimit: 4; is-custom-font: none; font-file-url: none; fill: rgb(0,0,0); fill-opacity: 0; fill-rule: nonzero; opacity: 1;" x="-50" y="-50" rx="0" ry="0" width="100" height="100"/>
    </g>
    <g transform="matrix(1 0 0 1 510.9589 500)" id="775501">
        <path style="stroke: none; stroke-width: 0; stroke-dasharray: none; stroke-linecap: butt; stroke-dashoffset: 0; stroke-linejoin: miter; stroke-miterlimit: 4; is-custom-font: none; font-file-url: none; fill: rgb(122,122,122); fill-rule: nonzero; opacity: 1;" vector-effect="non-scaling-stroke" transform=" translate(-192, -256)" d="M 365.3 93.38 l -74.63 -74.64 C 278.6 6.742 262.3 0 245.4 0 H 64 C 28.65 0 0 28.65 0 64 l 0.0065 384 c 0 35.34 28.65 64 64 64 H 320 c 35.2 0 64 -28.8 64 -64 V 138.6 C 384 121.7 377.3 105.4 365.3 93.38 z M 336 448 c 0 8.836 -7.164 16 -16 16 H 64.02 c -8.838 0 -16 -7.164 -16 -16 L 48 64.13 c 0 -8.836 7.164 -16 16 -16 h 160 L 224 128 c 0 17.67 14.33 32 32 32 h 79.1 V 448 z M 215.3 292 c -4.68 0 -9.051 2.34 -11.65 6.234 L 164 357.8 l -11.68 -17.53 C 149.7 336.3 145.3 334 140.7 334 c -4.682 0 -9.053 2.34 -11.65 6.234 l -46.67 70 c -2.865 4.297 -3.131 9.82 -0.6953 14.37 C 84.09 429.2 88.84 432 93.1 432 h 196 c 5.163 0 9.907 -2.844 12.34 -7.395 c 2.436 -4.551 2.17 -10.07 -0.6953 -14.37 l -74.67 -112 C 224.4 294.3 220 292 215.3 292 z M 128 288 c 17.67 0 32 -14.33 32 -32 S 145.7 224 128 224 S 96 238.3 96 256 S 110.3 288 128 288 z" stroke-linecap="round"/>
    </g>
</svg>