<svg xmlns="http://www.w3.org/2000/svg" xmlns:xlink="http://www.w3.org/1999/xlink" version="1.1" width="1000" height="1000" viewBox="0 0 1000 1000" xml:space="preserve">
<desc>Created with Fabric.js 3.5.0</desc>
<defs>
</defs>
<rect x="0" y="0" width="100%" height="100%" fill="rgba(255,255,255,0)"/>
<g transform="matrix(1.7756 0 0 1.7756 502.0081 502.0071)" id="915443">
<path style="stroke: rgb(0,0,0); stroke-opacity: 0; stroke-width: 5; stroke-dasharray: none; stroke-linecap: butt; stroke-dashoffset: 0; stroke-linejoin: miter; stroke-miterlimit: 4; is-custom-font: none; font-file-url: none; fill: rgb(121,121,121); fill-rule: nonzero; opacity: 1;" vector-effect="non-scaling-stroke" transform=" translate(-256, -256)" d="M 128 447.1 V 223.1 c 0 -17.67 -14.33 -31.1 -32 -31.1 H 32 c -17.67 0 -32 14.33 -32 31.1 v 223.1 c 0 17.67 14.33 31.1 32 31.1 h 64 C 113.7 479.1 128 465.6 128 447.1 z M 512 224.1 c 0 -26.5 -21.48 -47.98 -48 -47.98 h -146.5 c 22.77 -37.91 34.52 -80.88 34.52 -96.02 C 352 56.52 333.5 32 302.5 32 c -63.13 0 -26.36 76.15 -108.2 141.6 L 178 186.6 C 166.2 196.1 160.2 210 160.1 224 c -0.0234 0.0234 0 0 0 0 L 160 384 c 0 15.1 7.113 29.33 19.2 38.39 l 34.14 25.59 C 241 468.8 274.7 480 309.3 480 H 368 c 26.52 0 48 -21.47 48 -47.98 c 0 -3.635 -0.4805 -7.143 -1.246 -10.55 C 434 415.2 448 397.4 448 376 c 0 -9.148 -2.697 -17.61 -7.139 -24.88 C 463.1 347 480 327.5 480 304.1 c 0 -12.5 -4.893 -23.78 -12.72 -32.32 C 492.2 270.1 512 249.5 512 224.1 z" stroke-linecap="round"/>
</g>
</svg>