<svg xmlns="http://www.w3.org/2000/svg" xmlns:xlink="http://www.w3.org/1999/xlink" version="1.1" width="1000" height="1000" viewBox="0 0 1000 1000" xml:space="preserve">
<desc>Created with Fabric.js 3.5.0</desc>
<defs>
</defs>
<rect x="0" y="0" width="100%" height="100%" fill="rgba(255,255,255,0)"/>
<g transform="matrix(1 0 0 1 49.5 49.5)" id="815029">
<rect style="stroke: none; stroke-width: 0; stroke-dasharray: none; stroke-linecap: butt; stroke-dashoffset: 0; stroke-linejoin: miter; stroke-miterlimit: 4; is-custom-font: none; font-file-url: none; fill: rgb(0,0,0); fill-opacity: 0; fill-rule: nonzero; opacity: 1;" x="-50" y="-50" rx="0" ry="0" width="100" height="100"/>
</g>
<g transform="matrix(1 0 0 1 500 500)" id="530899">
<g style="" vector-effect="non-scaling-stroke">
		<g transform="matrix(1 0 0 1 -0.8848 -7.034)" id="_1">
<path style="stroke: none; stroke-width: 1; stroke-dasharray: none; stroke-linecap: butt; stroke-dashoffset: 0; stroke-linejoin: miter; stroke-miterlimit: 4; is-custom-font: none; font-file-url: none; fill: rgb(122,122,122); fill-rule: nonzero; opacity: 1;" transform=" translate(-255.1152, -248.966)" d="M 291.48 449.94 A 15 15 0 0 1 278 441.5 L 207.5 296.57 L 62.57 226.08 a 15 15 0 0 1 1 -27.41 L 435.48 49.08 A 15 15 0 0 1 455 68.6 L 305.4 440.54 A 15 15 0 0 1 292 449.93 Z m -185.38 -236 l 119.18 58 a 15 15 0 0 1 6.93 6.93 l 58 119.18 L 414 90 Z" stroke-linecap="round"/>
</g>
		<g transform="matrix(1 0 0 1 73.8996 -81.8256)" id="_1">
<path style="stroke: none; stroke-width: 1; stroke-dasharray: none; stroke-linecap: butt; stroke-dashoffset: 0; stroke-linejoin: miter; stroke-miterlimit: 4; is-custom-font: none; font-file-url: none; fill: rgb(122,122,122); fill-rule: nonzero; opacity: 1;" transform=" translate(-329.8995, -174.1744)" d="M 218.72 300.35 a 15 15 0 0 1 -10.6 -25.61 L 430.47 52.39 a 15 15 0 1 1 21.21 21.22 L 229.33 296 A 15 15 0 0 1 218.72 300.35 Z" stroke-linecap="round"/>
</g>
</g>
</g>
</svg>